<svg xmlns="http://www.w3.org/2000/svg" width="24" height="24" fill="none" viewBox="0 0 24 24"><path fill="#000" fill-rule="evenodd" d="M1.5 5.5C1.5 3.29086 3.29086 1.5 5.5 1.5H8V2.5H5.5C3.84315 2.5 2.5 3.84315 2.5 5.5V8H1.5V5.5ZM18.5 2.5H16V1.5H18.5C20.7091 1.5 22.5 3.29086 22.5 5.5V8H21.5V5.5C21.5 3.84315 20.1569 2.5 18.5 2.5ZM2.5 16V18.5C2.5 20.1569 3.84315 21.5 5.5 21.5H8V22.5H5.5C3.29086 22.5 1.5 20.7091 1.5 18.5V16H2.5ZM21.5 18.5V16H22.5V18.5C22.5 20.7091 20.7091 22.5 18.5 22.5H16V21.5H18.5C20.1569 21.5 21.5 20.1569 21.5 18.5Z" clip-rule="evenodd"/><path fill="#000" fill-rule="evenodd" d="M4 6.5C4 5.11929 5.11929 4 6.5 4H8.5C9.88071 4 11 5.11929 11 6.5V8.5C11 9.88071 9.88071 11 8.5 11H6.5C5.11929 11 4 9.88071 4 8.5V6.5zM6.5 5C5.67157 5 5 5.67157 5 6.5V8.5C5 9.32843 5.67157 10 6.5 10H8.5C9.32843 10 10 9.32843 10 8.5V6.5C10 5.67157 9.32843 5 8.5 5H6.5zM4 15.5C4 14.1193 5.11929 13 6.5 13H8.5C9.88071 13 11 14.1193 11 15.5V17.5C11 18.8807 9.88071 20 8.5 20H6.5C5.11929 20 4 18.8807 4 17.5V15.5zM6.5 14C5.67157 14 5 14.6716 5 15.5V17.5C5 18.3284 5.67157 19 6.5 19H8.5C9.32843 19 10 18.3284 10 17.5V15.5C10 14.6716 9.32843 14 8.5 14H6.5zM13 6.5C13 5.11929 14.1193 4 15.5 4H17.5C18.8807 4 20 5.11929 20 6.5V8.5C20 9.88071 18.8807 11 17.5 11H15.5C14.1193 11 13 9.88071 13 8.5V6.5zM15.5 5C14.6716 5 14 5.67157 14 6.5V8.5C14 9.32843 14.6716 10 15.5 10H17.5C18.3284 10 19 9.32843 19 8.5V6.5C19 5.67157 18.3284 5 17.5 5H15.5zM13 15.5C13 14.1193 14.1193 13 15.5 13H17.5C18.8807 13 20 14.1193 20 15.5V17.5C20 18.8807 18.8807 20 17.5 20H15.5C14.1193 20 13 18.8807 13 17.5V15.5zM15.5 14C14.6716 14 14 14.6716 14 15.5V17.5C14 18.3284 14.6716 19 15.5 19H17.5C18.3284 19 19 18.3284 19 17.5V15.5C19 14.6716 18.3284 14 17.5 14H15.5z" clip-rule="evenodd"/></svg>