<svg xmlns="http://www.w3.org/2000/svg" width="24" height="24" fill="none" viewBox="0 0 24 24"><path fill="#000" fill-rule="evenodd" d="M1 5.5C1 3.01472 3.01472 1 5.5 1H8V3H5.5C4.11929 3 3 4.11929 3 5.5V8H1V5.5ZM18.5 3H16V1H18.5C20.9853 1 23 3.01472 23 5.5V8H21V5.5C21 4.11929 19.8807 3 18.5 3ZM3 16V18.5C3 19.8807 4.11929 21 5.5 21H8V23H5.5C3.01472 23 1 20.9853 1 18.5V16H3ZM21 18.5V16H23V18.5C23 20.9853 20.9853 23 18.5 23H16V21H18.5C19.8807 21 21 19.8807 21 18.5Z" clip-rule="evenodd"/><path fill="#000" fill-rule="evenodd" d="M3.5 6.5C3.5 4.84315 4.84315 3.5 6.5 3.5H8.5C10.1569 3.5 11.5 4.84315 11.5 6.5V8.5C11.5 10.1569 10.1569 11.5 8.5 11.5H6.5C4.84315 11.5 3.5 10.1569 3.5 8.5V6.5zM6.5 5.5C5.94772 5.5 5.5 5.94772 5.5 6.5V8.5C5.5 9.05228 5.94772 9.5 6.5 9.5H8.5C9.05228 9.5 9.5 9.05228 9.5 8.5V6.5C9.5 5.94772 9.05228 5.5 8.5 5.5H6.5zM3.5 15.5C3.5 13.8431 4.84315 12.5 6.5 12.5H8.5C10.1569 12.5 11.5 13.8431 11.5 15.5V17.5C11.5 19.1569 10.1569 20.5 8.5 20.5H6.5C4.84315 20.5 3.5 19.1569 3.5 17.5V15.5zM6.5 14.5C5.94772 14.5 5.5 14.9477 5.5 15.5V17.5C5.5 18.0523 5.94772 18.5 6.5 18.5H8.5C9.05228 18.5 9.5 18.0523 9.5 17.5V15.5C9.5 14.9477 9.05228 14.5 8.5 14.5H6.5zM12.5 6.5C12.5 4.84315 13.8431 3.5 15.5 3.5H17.5C19.1569 3.5 20.5 4.84315 20.5 6.5V8.5C20.5 10.1569 19.1569 11.5 17.5 11.5H15.5C13.8431 11.5 12.5 10.1569 12.5 8.5V6.5zM15.5 5.5C14.9477 5.5 14.5 5.94772 14.5 6.5V8.5C14.5 9.05228 14.9477 9.5 15.5 9.5H17.5C18.0523 9.5 18.5 9.05228 18.5 8.5V6.5C18.5 5.94772 18.0523 5.5 17.5 5.5H15.5zM12.5 15.5C12.5 13.8431 13.8431 12.5 15.5 12.5H17.5C19.1569 12.5 20.5 13.8431 20.5 15.5V17.5C20.5 19.1569 19.1569 20.5 17.5 20.5H15.5C13.8431 20.5 12.5 19.1569 12.5 17.5V15.5zM15.5 14.5C14.9477 14.5 14.5 14.9477 14.5 15.5V17.5C14.5 18.0523 14.9477 18.5 15.5 18.5H17.5C18.0523 18.5 18.5 18.0523 18.5 17.5V15.5C18.5 14.9477 18.0523 14.5 17.5 14.5H15.5z" clip-rule="evenodd"/></svg>